    <?xml version="1.0" standalone="no"?>
<svg xmlns:xlink="http://www.w3.org/1999/xlink" id="wave" style="transform:rotate(0deg); transition: 0.3s" viewBox="0 0 1440 440" version="1.1" xmlns="http://www.w3.org/2000/svg"><defs><linearGradient id="sw-gradient-0" x1="0" x2="0" y1="1" y2="0"><stop stop-color="rgba(243, 106, 62, 1)" offset="0%"/><stop stop-color="rgba(255, 179, 11, 1)" offset="100%"/></linearGradient></defs><path style="transform:translate(0, 0px); opacity:1" fill="url(#sw-gradient-0)" d="M0,220L60,190.7C120,161,240,103,360,117.3C480,132,600,220,720,227.3C840,235,960,161,1080,117.3C1200,73,1320,59,1440,73.3C1560,88,1680,132,1800,139.3C1920,147,2040,117,2160,95.3C2280,73,2400,59,2520,102.7C2640,147,2760,249,2880,264C3000,279,3120,205,3240,168.7C3360,132,3480,132,3600,146.7C3720,161,3840,191,3960,198C4080,205,4200,191,4320,212.7C4440,235,4560,293,4680,264C4800,235,4920,117,5040,102.7C5160,88,5280,176,5400,227.3C5520,279,5640,293,5760,264C5880,235,6000,161,6120,146.7C6240,132,6360,176,6480,227.3C6600,279,6720,337,6840,359.3C6960,381,7080,367,7200,330C7320,293,7440,235,7560,176C7680,117,7800,59,7920,29.3C8040,0,8160,0,8280,22C8400,44,8520,88,8580,110L8640,132L8640,440L8580,440C8520,440,8400,440,8280,440C8160,440,8040,440,7920,440C7800,440,7680,440,7560,440C7440,440,7320,440,7200,440C7080,440,6960,440,6840,440C6720,440,6600,440,6480,440C6360,440,6240,440,6120,440C6000,440,5880,440,5760,440C5640,440,5520,440,5400,440C5280,440,5160,440,5040,440C4920,440,4800,440,4680,440C4560,440,4440,440,4320,440C4200,440,4080,440,3960,440C3840,440,3720,440,3600,440C3480,440,3360,440,3240,440C3120,440,3000,440,2880,440C2760,440,2640,440,2520,440C2400,440,2280,440,2160,440C2040,440,1920,440,1800,440C1680,440,1560,440,1440,440C1320,440,1200,440,1080,440C960,440,840,440,720,440C600,440,480,440,360,440C240,440,120,440,60,440L0,440Z"/></svg>