<svg width="99" height="99" viewBox="0 0 99 99" fill="none" xmlns="http://www.w3.org/2000/svg">
<path d="M-1.52588e-05 49.42C-1.52588e-05 51.96 3.72999 54.17 4.10999 56.6C4.49998 59.09 1.63998 62.35 2.39998 64.7C3.16998 67.09 7.39997 68.04 8.51997 70.25C9.65997 72.48 7.93998 76.47 9.39998 78.48C10.87 80.5 15.18 80.09 16.93 81.85C18.69 83.61 18.28 87.94 20.29 89.41C22.29 90.87 26.27 89.16 28.49 90.3C30.69 91.43 31.64 95.67 34.02 96.44C36.36 97.2 39.61 94.34 42.09 94.73C44.51 95.11 46.72 98.85 49.24 98.85C51.76 98.85 53.97 95.11 56.39 94.73C58.88 94.34 62.12 97.21 64.46 96.44C66.84 95.66 67.79 91.42 69.99 90.3C72.21 89.16 76.19 90.88 78.19 89.41C80.2 87.94 79.8 83.62 81.55 81.85C83.31 80.09 87.62 80.49 89.08 78.48C90.54 76.47 88.83 72.48 89.96 70.25C91.08 68.04 95.31 67.1 96.08 64.71C96.84 62.36 93.98 59.11 94.37 56.61C94.75 54.18 98.48 51.97 98.48 49.43C98.48 46.89 94.75 44.68 94.37 42.25C93.98 39.76 96.84 36.5 96.08 34.15C95.31 31.76 91.08 30.81 89.96 28.6C88.82 26.37 90.54 22.38 89.08 20.37C87.61 18.35 83.3 18.76 81.55 17C79.79 15.24 80.2 10.91 78.19 9.44C76.19 7.98 72.21 9.69 69.99 8.55C67.79 7.42 66.84 3.18 64.46 2.41C62.12 1.65 58.87 4.51001 56.39 4.12001C53.97 3.74001 51.76 0 49.24 0C46.72 0 44.51 3.74001 42.09 4.12001C39.6 4.51001 36.36 1.64 34.02 2.41C31.64 3.19 30.69 7.43 28.49 8.55C26.27 9.69 22.29 7.97 20.29 9.44C18.28 10.91 18.68 15.23 16.93 17C15.17 18.76 10.86 18.36 9.39998 20.37C7.93998 22.38 9.64997 26.37 8.51997 28.6C7.39997 30.81 3.16998 31.75 2.39998 34.14C1.63998 36.49 4.49998 39.74 4.10999 42.24C3.72999 44.67 -1.52588e-05 46.88 -1.52588e-05 49.42Z" fill="#014C46"/>
</svg>
