<svg width="22" height="22" viewBox="0 0 22 22" fill="none" xmlns="http://www.w3.org/2000/svg">
<mask id="path-1-inside-1_1_7380" fill="white">
<path d="M10.0833 5.50001H12.8333L15.8491 2.47501C15.9343 2.38909 16.0357 2.32089 16.1474 2.27436C16.2591 2.22782 16.3789 2.20386 16.4999 2.20386C16.6209 2.20386 16.7407 2.22782 16.8525 2.27436C16.9642 2.32089 17.0655 2.38909 17.1508 2.47501L19.5158 4.84917C19.6865 5.02092 19.7823 5.25325 19.7823 5.49542C19.7823 5.73759 19.6865 5.96992 19.5158 6.14167L17.4166 8.25001H10.0833V10.0833C10.0833 10.3265 9.98668 10.5596 9.81477 10.7315C9.64286 10.9034 9.4097 11 9.16659 11C8.92347 11 8.69032 10.9034 8.51841 10.7315C8.3465 10.5596 8.24992 10.3265 8.24992 10.0833V7.33334C8.24992 6.84711 8.44308 6.38079 8.78689 6.03698C9.13071 5.69316 9.59703 5.50001 10.0833 5.50001ZM4.58326 10.0833V13.75L2.48409 15.8492C2.31336 16.0209 2.21753 16.2533 2.21753 16.4954C2.21753 16.7376 2.31336 16.9699 2.48409 17.1417L4.84909 19.5158C4.93431 19.6018 5.03569 19.67 5.14739 19.7165C5.2591 19.763 5.37891 19.787 5.49992 19.787C5.62093 19.787 5.74075 19.763 5.85245 19.7165C5.96416 19.67 6.06554 19.6018 6.15076 19.5158L10.0833 15.5833H13.7499C13.993 15.5833 14.2262 15.4868 14.3981 15.3149C14.57 15.1429 14.6666 14.9098 14.6666 14.6667V13.75H15.5833C15.8264 13.75 16.0595 13.6534 16.2314 13.4815C16.4033 13.3096 16.4999 13.0765 16.4999 12.8333V11.9167H17.4166C17.6597 11.9167 17.8929 11.8201 18.0648 11.6482C18.2367 11.4763 18.3333 11.2431 18.3333 11V10.0833H11.9166V11C11.9166 11.4862 11.7234 11.9526 11.3796 12.2964C11.0358 12.6402 10.5695 12.8333 10.0833 12.8333H8.24992C7.76369 12.8333 7.29738 12.6402 6.95356 12.2964C6.60974 11.9526 6.41659 11.4862 6.41659 11V8.25001L4.58326 10.0833Z"/>
</mask>
<path d="M10.0833 5.50001H12.8333L15.8491 2.47501C15.9343 2.38909 16.0357 2.32089 16.1474 2.27436C16.2591 2.22782 16.3789 2.20386 16.4999 2.20386C16.6209 2.20386 16.7407 2.22782 16.8525 2.27436C16.9642 2.32089 17.0655 2.38909 17.1508 2.47501L19.5158 4.84917C19.6865 5.02092 19.7823 5.25325 19.7823 5.49542C19.7823 5.73759 19.6865 5.96992 19.5158 6.14167L17.4166 8.25001H10.0833V10.0833C10.0833 10.3265 9.98668 10.5596 9.81477 10.7315C9.64286 10.9034 9.4097 11 9.16659 11C8.92347 11 8.69032 10.9034 8.51841 10.7315C8.3465 10.5596 8.24992 10.3265 8.24992 10.0833V7.33334C8.24992 6.84711 8.44308 6.38079 8.78689 6.03698C9.13071 5.69316 9.59703 5.50001 10.0833 5.50001ZM4.58326 10.0833V13.75L2.48409 15.8492C2.31336 16.0209 2.21753 16.2533 2.21753 16.4954C2.21753 16.7376 2.31336 16.9699 2.48409 17.1417L4.84909 19.5158C4.93431 19.6018 5.03569 19.67 5.14739 19.7165C5.2591 19.763 5.37891 19.787 5.49992 19.787C5.62093 19.787 5.74075 19.763 5.85245 19.7165C5.96416 19.67 6.06554 19.6018 6.15076 19.5158L10.0833 15.5833H13.7499C13.993 15.5833 14.2262 15.4868 14.3981 15.3149C14.57 15.1429 14.6666 14.9098 14.6666 14.6667V13.75H15.5833C15.8264 13.75 16.0595 13.6534 16.2314 13.4815C16.4033 13.3096 16.4999 13.0765 16.4999 12.8333V11.9167H17.4166C17.6597 11.9167 17.8929 11.8201 18.0648 11.6482C18.2367 11.4763 18.3333 11.2431 18.3333 11V10.0833H11.9166V11C11.9166 11.4862 11.7234 11.9526 11.3796 12.2964C11.0358 12.6402 10.5695 12.8333 10.0833 12.8333H8.24992C7.76369 12.8333 7.29738 12.6402 6.95356 12.2964C6.60974 11.9526 6.41659 11.4862 6.41659 11V8.25001L4.58326 10.0833Z" fill="#014C46"/>
<path d="M10.0833 5.50001V3.50001V5.50001ZM12.8333 5.50001V7.50001H13.6635L14.2496 6.91207L12.8333 5.50001ZM15.8491 2.47501L17.2655 3.88708L17.2691 3.88341L15.8491 2.47501ZM16.4999 2.20386V4.20386V2.20386ZM17.1508 2.47501L15.7308 3.88341L15.7338 3.88648L17.1508 2.47501ZM19.5158 4.84917L20.9342 3.43917L20.9327 3.4377L19.5158 4.84917ZM19.5158 6.14167L20.9331 7.5528L20.9342 7.55167L19.5158 6.14167ZM17.4166 8.25001V10.25H18.2476L18.8339 9.66114L17.4166 8.25001ZM10.0833 8.25001V6.25001H8.08326V8.25001H10.0833ZM4.58326 10.0833L3.16904 8.66913L2.58326 9.25491V10.0833H4.58326ZM4.58326 13.75L5.99747 15.1642L6.58326 14.5784V13.75H4.58326ZM2.48409 15.8492L1.06987 14.435L1.06567 14.4392L2.48409 15.8492ZM2.21753 16.4954H0.217529H2.21753ZM2.48409 17.1417L1.06567 18.5517L1.06714 18.5531L2.48409 17.1417ZM4.84909 19.5158L6.26909 18.1074L6.26604 18.1044L4.84909 19.5158ZM6.15076 19.5158L4.73653 18.1016L4.73076 18.1074L6.15076 19.5158ZM10.0833 15.5833V13.5833H9.25483L8.66904 14.1691L10.0833 15.5833ZM14.6666 13.75V11.75H12.6666V13.75H14.6666ZM16.4999 11.9167V9.91667H14.4999V11.9167H16.4999ZM18.3333 10.0833H20.3333V8.08334H18.3333V10.0833ZM11.9166 10.0833V8.08334H9.91659V10.0833H11.9166ZM6.41659 11H4.41659H6.41659ZM6.41659 8.25001H8.41659V3.42158L5.00238 6.83579L6.41659 8.25001ZM10.0833 7.50001H12.8333V3.50001H10.0833V7.50001ZM14.2496 6.91207L17.2654 3.88707L14.4327 1.06294L11.4169 4.08794L14.2496 6.91207ZM17.2691 3.88341C17.1684 3.98494 17.0486 4.06554 16.9165 4.12054L15.3782 0.428169C15.0228 0.576247 14.7002 0.793232 14.4291 1.0666L17.2691 3.88341ZM16.9165 4.12054C16.7845 4.17554 16.6429 4.20386 16.4999 4.20386V0.203857C16.1149 0.203857 15.7337 0.280094 15.3782 0.428169L16.9165 4.12054ZM16.4999 4.20386C16.3569 4.20386 16.2153 4.17554 16.0833 4.12054L17.6216 0.428169C17.2662 0.280094 16.885 0.203857 16.4999 0.203857V4.20386ZM16.0833 4.12054C15.9513 4.06554 15.8315 3.98495 15.7308 3.88341L18.5708 1.0666C18.2996 0.793228 17.977 0.576245 17.6216 0.428169L16.0833 4.12054ZM15.7338 3.88648L18.0988 6.26065L20.9327 3.4377L18.5677 1.06353L15.7338 3.88648ZM18.0973 6.25917C17.8956 6.0562 17.7823 5.78162 17.7823 5.49542H21.7823C21.7823 4.72488 21.4774 3.98565 20.9342 3.43917L18.0973 6.25917ZM17.7823 5.49542C17.7823 5.20922 17.8956 4.93465 18.0973 4.73167L20.9342 7.55167C21.4774 7.0052 21.7823 6.26596 21.7823 5.49542H17.7823ZM18.0985 4.73054L15.9993 6.83888L18.8339 9.66114L20.9331 7.5528L18.0985 4.73054ZM17.4166 6.25001H10.0833V10.25H17.4166V6.25001ZM8.08326 8.25001V10.0833H12.0833V8.25001H8.08326ZM8.08326 10.0833C8.08326 9.79602 8.19739 9.52047 8.40056 9.31731L11.229 12.1457C11.776 11.5988 12.0833 10.8569 12.0833 10.0833H8.08326ZM8.40056 9.31731C8.60372 9.11414 8.87927 9.00001 9.16659 9.00001V13C9.94014 13 10.682 12.6927 11.229 12.1457L8.40056 9.31731ZM9.16659 9.00001C9.45391 9.00001 9.72946 9.11414 9.93262 9.31731L7.1042 12.1457C7.65118 12.6927 8.39304 13 9.16659 13V9.00001ZM9.93262 9.31731C10.1358 9.52047 10.2499 9.79602 10.2499 10.0833H6.24992C6.24992 10.8569 6.55721 11.5988 7.1042 12.1457L9.93262 9.31731ZM10.2499 10.0833V7.33334H6.24992V10.0833H10.2499ZM10.2499 7.33334C10.2499 7.37754 10.2324 7.41993 10.2011 7.45119L7.37268 4.62276C6.65379 5.34165 6.24992 6.31668 6.24992 7.33334H10.2499ZM10.2011 7.45119C10.1699 7.48245 10.1275 7.50001 10.0833 7.50001V3.50001C9.06659 3.50001 8.09157 3.90387 7.37268 4.62276L10.2011 7.45119ZM2.58326 10.0833V13.75H6.58326V10.0833H2.58326ZM3.16904 12.3358L1.06988 14.435L3.8983 17.2634L5.99747 15.1642L3.16904 12.3358ZM1.06567 14.4392C0.522443 14.9856 0.217529 15.7249 0.217529 16.4954H4.21753C4.21753 16.7816 4.10428 17.0562 3.9025 17.2592L1.06567 14.4392ZM0.217529 16.4954C0.217529 17.266 0.522443 18.0052 1.06567 18.5517L3.9025 15.7317C4.10428 15.9346 4.21753 16.2092 4.21753 16.4954H0.217529ZM1.06714 18.5531L3.43214 20.9273L6.26604 18.1044L3.90104 15.7302L1.06714 18.5531ZM3.42909 20.9242C3.70023 21.1976 4.02282 21.4146 4.37824 21.5627L5.91655 17.8703C6.04856 17.9253 6.16838 18.0059 6.26909 18.1074L3.42909 20.9242ZM4.37824 21.5627C4.73367 21.7108 5.1149 21.787 5.49992 21.787V17.787C5.64293 17.787 5.78453 17.8153 5.91655 17.8703L4.37824 21.5627ZM5.49992 21.787C5.88495 21.787 6.26617 21.7108 6.6216 21.5627L5.0833 17.8703C5.21532 17.8153 5.35692 17.787 5.49992 17.787V21.787ZM6.6216 21.5627C6.97703 21.4146 7.29961 21.1976 7.57076 20.9242L4.73076 18.1074C4.83147 18.0059 4.95128 17.9253 5.0833 17.8703L6.6216 21.5627ZM7.56497 20.9301L11.4975 16.9976L8.66904 14.1691L4.73654 18.1016L7.56497 20.9301ZM10.0833 17.5833H13.7499V13.5833H10.0833V17.5833ZM13.7499 17.5833C14.5235 17.5833 15.2653 17.2761 15.8123 16.7291L12.9839 13.9006C13.1871 13.6975 13.4626 13.5833 13.7499 13.5833V17.5833ZM15.8123 16.7291C16.3593 16.1821 16.6666 15.4402 16.6666 14.6667H12.6666C12.6666 14.3794 12.7807 14.1038 12.9839 13.9006L15.8123 16.7291ZM16.6666 14.6667V13.75H12.6666V14.6667H16.6666ZM14.6666 15.75H15.5833V11.75H14.6666V15.75ZM15.5833 15.75C16.3568 15.75 17.0987 15.4427 17.6457 14.8957L14.8172 12.0673C15.0204 11.8641 15.2959 11.75 15.5833 11.75V15.75ZM17.6457 14.8957C18.1926 14.3488 18.4999 13.6069 18.4999 12.8333H14.4999C14.4999 12.546 14.6141 12.2705 14.8172 12.0673L17.6457 14.8957ZM18.4999 12.8333V11.9167H14.4999V12.8333H18.4999ZM16.4999 13.9167H17.4166V9.91667H16.4999V13.9167ZM17.4166 13.9167C18.1901 13.9167 18.932 13.6094 19.479 13.0624L16.6506 10.234C16.8537 10.0308 17.1293 9.91667 17.4166 9.91667V13.9167ZM19.479 13.0624C20.026 12.5154 20.3333 11.7736 20.3333 11H16.3333C16.3333 10.7127 16.4474 10.4371 16.6506 10.234L19.479 13.0624ZM20.3333 11V10.0833H16.3333V11H20.3333ZM18.3333 8.08334H11.9166V12.0833H18.3333V8.08334ZM9.91659 10.0833V11H13.9166V10.0833H9.91659ZM9.91659 11C9.91659 10.9558 9.93415 10.9134 9.9654 10.8822L12.7938 13.7106C13.5127 12.9917 13.9166 12.0167 13.9166 11H9.91659ZM9.9654 10.8822C9.99666 10.8509 10.0391 10.8333 10.0833 10.8333V14.8333C11.0999 14.8333 12.0749 14.4295 12.7938 13.7106L9.9654 10.8822ZM10.0833 10.8333H8.24992V14.8333H10.0833V10.8333ZM8.24992 10.8333C8.29413 10.8333 8.33652 10.8509 8.36777 10.8822L5.53935 13.7106C6.25824 14.4295 7.23326 14.8333 8.24992 14.8333V10.8333ZM8.36777 10.8822C8.39903 10.9134 8.41659 10.9558 8.41659 11H4.41659C4.41659 12.0167 4.82046 12.9917 5.53935 13.7106L8.36777 10.8822ZM8.41659 11V8.25001H4.41659V11H8.41659ZM5.00238 6.83579L3.16904 8.66913L5.99747 11.4976L7.8308 9.66422L5.00238 6.83579Z" fill="#014C46" mask="url(#path-1-inside-1_1_7380)"/>
</svg>
