<svg width="10" height="10" viewBox="0 0 10 10" fill="none" xmlns="http://www.w3.org/2000/svg">
<g clip-path="url(#clip0_3221_2739)">
<path d="M8.93333 8.56667H2.33333C2.0416 8.56667 1.76181 8.45077 1.55552 8.24448C1.34923 8.03819 1.23333 7.7584 1.23333 7.46667V0.866667C1.23333 0.769421 1.1947 0.676158 1.12594 0.607394C1.05718 0.538631 0.963913 0.5 0.866667 0.5C0.769421 0.5 0.676158 0.538631 0.607394 0.607394C0.538631 0.676158 0.5 0.769421 0.5 0.866667L0.5 7.46667C0.500582 7.95272 0.693923 8.4187 1.03761 8.76239C1.3813 9.10608 1.84728 9.29942 2.33333 9.3H8.93333C9.03058 9.3 9.12384 9.26137 9.19261 9.19261C9.26137 9.12384 9.3 9.03058 9.3 8.93333C9.3 8.83609 9.26137 8.74282 9.19261 8.67406C9.12384 8.6053 9.03058 8.56667 8.93333 8.56667Z" fill="#0D062D"/>
<path d="M2.70006 7.8332C2.7973 7.8332 2.89056 7.79457 2.95933 7.72581C3.02809 7.65705 3.06672 7.56378 3.06672 7.46654V4.89987C3.06672 4.80262 3.02809 4.70936 2.95933 4.6406C2.89056 4.57183 2.7973 4.5332 2.70006 4.5332C2.60281 4.5332 2.50955 4.57183 2.44078 4.6406C2.37202 4.70936 2.33339 4.80262 2.33339 4.89987V7.46654C2.33339 7.56378 2.37202 7.65705 2.44078 7.72581C2.50955 7.79457 2.60281 7.8332 2.70006 7.8332Z" fill="#0D062D"/>
<path d="M4.16661 4.16671V7.46671C4.16661 7.56396 4.20524 7.65722 4.27401 7.72598C4.34277 7.79475 4.43603 7.83338 4.53328 7.83338C4.63053 7.83338 4.72379 7.79475 4.79255 7.72598C4.86132 7.65722 4.89995 7.56396 4.89995 7.46671V4.16671C4.89995 4.06947 4.86132 3.97621 4.79255 3.90744C4.72379 3.83868 4.63053 3.80005 4.53328 3.80005C4.43603 3.80005 4.34277 3.83868 4.27401 3.90744C4.20524 3.97621 4.16661 4.06947 4.16661 4.16671Z" fill="#0D062D"/>
<path d="M6 5.26657V7.46656C6 7.56381 6.03863 7.65707 6.10739 7.72584C6.17616 7.7946 6.26942 7.83323 6.36667 7.83323C6.46392 7.83323 6.55718 7.7946 6.62594 7.72584C6.69471 7.65707 6.73334 7.56381 6.73334 7.46656V5.26657C6.73334 5.16932 6.69471 5.07606 6.62594 5.0073C6.55718 4.93853 6.46392 4.8999 6.36667 4.8999C6.26942 4.8999 6.17616 4.93853 6.10739 5.0073C6.03863 5.07606 6 5.16932 6 5.26657Z" fill="#0D062D"/>
<path d="M7.8334 3.80002V7.46668C7.8334 7.56393 7.87204 7.65719 7.9408 7.72596C8.00956 7.79472 8.10283 7.83335 8.20007 7.83335C8.29732 7.83335 8.39058 7.79472 8.45935 7.72596C8.52811 7.65719 8.56674 7.56393 8.56674 7.46668V3.80002C8.56674 3.70277 8.52811 3.60951 8.45935 3.54074C8.39058 3.47198 8.29732 3.43335 8.20007 3.43335C8.10283 3.43335 8.00956 3.47198 7.9408 3.54074C7.87204 3.60951 7.8334 3.70277 7.8334 3.80002Z" fill="#0D062D"/>
<path d="M2.69993 3.79989C2.79717 3.79987 2.89042 3.76122 2.95917 3.69246L4.27403 2.37759C4.34392 2.31101 4.43674 2.27387 4.53327 2.27387C4.62979 2.27387 4.72261 2.31101 4.7925 2.37759L5.5889 3.17399C5.79518 3.38021 6.07492 3.49605 6.3666 3.49605C6.65828 3.49605 6.93802 3.38021 7.1443 3.17399L9.1925 1.12579C9.25929 1.05663 9.29625 0.964014 9.29541 0.867875C9.29458 0.771736 9.25601 0.679772 9.18803 0.611789C9.12005 0.543806 9.02808 0.505244 8.93195 0.504408C8.83581 0.503573 8.74319 0.540531 8.67403 0.607322L6.62583 2.65516C6.55707 2.72389 6.46383 2.76251 6.3666 2.76251C6.26937 2.76251 6.17613 2.72389 6.10737 2.65516L5.31097 1.85912C5.10469 1.6529 4.82495 1.53706 4.53327 1.53706C4.24158 1.53706 3.96185 1.6529 3.75557 1.85912L2.4407 3.17399C2.38944 3.22527 2.35453 3.29059 2.34038 3.36171C2.32624 3.43283 2.3335 3.50654 2.36125 3.57353C2.389 3.64052 2.43598 3.69778 2.49626 3.73807C2.55655 3.77836 2.62742 3.79987 2.69993 3.79989Z" fill="#0D062D"/>
</g>
<defs>
<clipPath id="clip0_3221_2739">
<rect width="8.8" height="8.8" fill="white" transform="translate(0.5 0.5)"/>
</clipPath>
</defs>
</svg>
