<svg width="17" height="18" viewBox="0 0 17 18" fill="none" xmlns="http://www.w3.org/2000/svg">
<path d="M15.7305 11.0953C16.5875 11.6582 16.5481 12.9626 15.6122 13.4567L9.02962 16.9363C8.76553 17.076 8.4713 17.149 8.17254 17.149C7.87379 17.149 7.57956 17.076 7.31546 16.9363L0.732875 13.4567C-0.202125 12.9617 -0.242458 11.6582 0.614625 11.0953L0.672375 11.132L7.31546 14.6447C7.57956 14.7843 7.87379 14.8574 8.17254 14.8574C8.4713 14.8574 8.76553 14.7843 9.02962 14.6447L15.6122 11.165C15.6528 11.1433 15.6916 11.1201 15.7305 11.0953ZM15.7305 7.42868C15.9197 7.55407 16.075 7.72438 16.1824 7.9244C16.2899 8.12442 16.3461 8.34793 16.3461 8.57497C16.3461 8.80201 16.2899 9.02553 16.1824 9.22555C16.075 9.42557 15.9197 9.59587 15.7305 9.72126L15.6122 9.79001L9.02962 13.2697C8.79021 13.3963 8.52572 13.4683 8.25517 13.4805C7.98461 13.4927 7.71471 13.4448 7.46487 13.3403L7.31637 13.2697L0.732875 9.79001C-0.202125 9.29501 -0.242458 7.99151 0.614625 7.42868L0.672375 7.46535L7.31546 10.978C7.55499 11.1048 7.81964 11.1768 8.09037 11.189C8.3611 11.2012 8.63116 11.1533 8.88112 11.0486L9.02962 10.978L15.6122 7.49835C15.6528 7.47663 15.6916 7.45339 15.7305 7.42868ZM9.02962 0.212679L15.6122 3.69235C16.5894 4.20843 16.5894 5.60818 15.6122 6.12335L9.02962 9.60393C8.76553 9.7436 8.4713 9.81661 8.17254 9.81661C7.87379 9.81661 7.57956 9.7436 7.31546 9.60393L0.732875 6.12335C-0.244292 5.60726 -0.244292 4.20843 0.732875 3.69235L7.31546 0.212679C7.57956 0.0730111 7.87379 0 8.17254 0C8.4713 0 8.76553 0.0730111 9.02962 0.212679Z" fill="#014C46"/>
</svg>
