<svg width="22" height="22" viewBox="0 0 22 22" fill="none" xmlns="http://www.w3.org/2000/svg">
<path d="M3.66659 3.66675C3.18036 3.66675 2.71404 3.8599 2.37022 4.20372C2.02641 4.54754 1.83325 5.01385 1.83325 5.50008V9.16675C2.31948 9.16675 2.7858 9.3599 3.12961 9.70372C3.47343 10.0475 3.66659 10.5139 3.66659 11.0001C3.66659 11.4863 3.47343 11.9526 3.12961 12.2964C2.7858 12.6403 2.31948 12.8334 1.83325 12.8334V16.5001C1.83325 16.9863 2.02641 17.4526 2.37022 17.7964C2.71404 18.1403 3.18036 18.3334 3.66659 18.3334H18.3333C18.8195 18.3334 19.2858 18.1403 19.6296 17.7964C19.9734 17.4526 20.1666 16.9863 20.1666 16.5001V12.8334C19.6804 12.8334 19.214 12.6403 18.8702 12.2964C18.5264 11.9526 18.3333 11.4863 18.3333 11.0001C18.3333 10.5139 18.5264 10.0475 18.8702 9.70372C19.214 9.3599 19.6804 9.16675 20.1666 9.16675V5.50008C20.1666 5.01385 19.9734 4.54754 19.6296 4.20372C19.2858 3.8599 18.8195 3.66675 18.3333 3.66675H3.66659ZM14.2083 6.41675L15.5833 7.79175L7.79159 15.5834L6.41659 14.2084L14.2083 6.41675ZM8.07575 6.45341C8.97409 6.45341 9.69825 7.17758 9.69825 8.07592C9.69825 8.50623 9.52731 8.91892 9.22303 9.2232C8.91876 9.52747 8.50607 9.69841 8.07575 9.69841C7.17742 9.69841 6.45325 8.97425 6.45325 8.07592C6.45325 7.6456 6.62419 7.23291 6.92847 6.92863C7.23275 6.62436 7.64544 6.45341 8.07575 6.45341ZM13.9241 12.3017C14.8224 12.3017 15.5466 13.0259 15.5466 13.9242C15.5466 14.3546 15.3756 14.7673 15.0714 15.0715C14.7671 15.3758 14.3544 15.5467 13.9241 15.5467C13.0258 15.5467 12.3016 14.8226 12.3016 13.9242C12.3016 13.4939 12.4725 13.0812 12.7768 12.777C13.0811 12.4727 13.4938 12.3017 13.9241 12.3017Z" fill="#014C46"/>
</svg>
